<svg xmlns="http://www.w3.org/2000/svg" xmlns:xlink="http://www.w3.org/1999/xlink" viewBox="0 0 484 383"><defs><style>.cls-1{mask:url(#mask);filter:url(#luminosity-noclip-2);}.cls-2,.cls-4{mix-blend-mode:multiply;}.cls-2{fill:url(#linear-gradient);}.cls-3{isolation:isolate;}.cls-4{fill:#f2f2f2;}.cls-5{fill:url(#New_Gradient_Swatch_copy_37);}.cls-6{fill:#fff;}.cls-7{fill:url(#New_Gradient_Swatch_copy_37-2);}.cls-8{fill:url(#New_Gradient_Swatch_copy_37-3);}.cls-9{fill:#061128;}.cls-10{fill:url(#linear-gradient-2);}.cls-11{fill:#19243d;}.cls-12{mask:url(#mask-2);}.cls-13{fill:url(#linear-gradient-3);}.cls-14{fill:url(#linear-gradient-4);}.cls-15{fill:url(#linear-gradient-5);}.cls-16{fill:#ef5050;}.cls-17{fill:#ffc800;}.cls-18{fill:#333;}.cls-19,.cls-31{fill:none;stroke-miterlimit:10;}.cls-19{stroke:#fff;}.cls-20{fill:url(#linear-gradient-6);}.cls-21{fill:url(#linear-gradient-7);}.cls-22{fill:url(#linear-gradient-8);}.cls-23{fill:url(#New_Gradient_Swatch_copy_35);}.cls-24{fill:url(#linear-gradient-9);}.cls-25{fill:url(#New_Gradient_Swatch_copy_35-2);}.cls-26{fill:url(#New_Gradient_Swatch_copy_35-3);}.cls-27{fill:url(#New_Gradient_Swatch_copy_35-4);}.cls-28{fill:url(#linear-gradient-10);}.cls-29{fill:url(#linear-gradient-11);}.cls-30{fill:url(#New_Gradient_Swatch_copy_38);}.cls-31{stroke:#848484;}.cls-32{fill:url(#linear-gradient-12);}.cls-33{fill:url(#linear-gradient-13);}.cls-34{fill:url(#New_Gradient_Swatch_3);}.cls-35{fill:url(#linear-gradient-14);}.cls-36{fill:url(#linear-gradient-15);}.cls-37{fill:url(#linear-gradient-16);}.cls-38{fill:url(#linear-gradient-17);}.cls-39{fill:url(#linear-gradient-18);}.cls-40{fill:url(#linear-gradient-19);}.cls-41{fill:url(#New_Gradient_Swatch_copy_38-2);}.cls-42{fill:url(#linear-gradient-20);}.cls-43{fill:url(#New_Gradient_Swatch_copy_35-5);}.cls-44{fill:url(#New_Gradient_Swatch_copy_35-6);}.cls-45{fill:url(#linear-gradient-21);}.cls-46{fill:url(#New_Gradient_Swatch_copy_35-7);}.cls-47{fill:url(#linear-gradient-22);}.cls-48{fill:url(#linear-gradient-23);}.cls-49{fill:url(#linear-gradient-24);}.cls-50{fill:url(#linear-gradient-25);}.cls-51{fill:url(#linear-gradient-26);}.cls-52{fill:url(#linear-gradient-27);}.cls-53{fill:url(#linear-gradient-28);}.cls-54{fill:url(#linear-gradient-29);}.cls-55{fill:#00a6ff;}.cls-56{fill:url(#linear-gradient-30);}.cls-57{fill:url(#linear-gradient-31);}.cls-58{fill:url(#linear-gradient-32);}.cls-59{fill:url(#linear-gradient-33);}.cls-60{fill:url(#linear-gradient-34);}.cls-61{fill:url(#linear-gradient-35);}.cls-62{fill:#4291c5;}.cls-63{fill:url(#New_Gradient_Swatch_copy_35-8);}.cls-64{fill:url(#New_Gradient_Swatch_copy_35-9);}.cls-65{fill:url(#New_Gradient_Swatch_copy_35-10);}.cls-66{fill:url(#New_Gradient_Swatch_copy_35-11);}.cls-67{filter:url(#luminosity-noclip);}</style><filter id="luminosity-noclip" x="197.47" y="-6907.15" width="51.5" height="32766" filterUnits="userSpaceOnUse" color-interpolation-filters="sRGB"><feFlood flood-color="#fff" result="bg"/><feBlend in="SourceGraphic" in2="bg"/></filter><mask id="mask" x="197.47" y="-6907.15" width="51.5" height="32766" maskUnits="userSpaceOnUse"><g class="cls-67"/></mask><linearGradient id="linear-gradient" x1="390.81" y1="540.39" x2="441.39" y2="557.22" gradientTransform="matrix(0.99, 0.12, -0.12, 0.99, -137.34, -288.27)" gradientUnits="userSpaceOnUse"><stop offset="0" stop-color="#fff"/><stop offset="0.17" stop-color="#c6c6c6"/><stop offset="0.4" stop-color="gray"/><stop offset="0.6" stop-color="#494949"/><stop offset="0.78" stop-color="#212121"/><stop offset="0.92" stop-color="#090909"/><stop offset="1"/></linearGradient><linearGradient id="New_Gradient_Swatch_copy_37" x1="418.47" y1="118.04" x2="372.93" y2="248.98" gradientUnits="userSpaceOnUse"><stop offset="0" stop-color="#b4f492"/><stop offset="0.3" stop-color="#8ad292"/><stop offset="0.77" stop-color="#4da092"/><stop offset="1" stop-color="#358c92"/></linearGradient><linearGradient id="New_Gradient_Swatch_copy_37-2" x1="458.16" y1="97.33" x2="336.72" y2="198.85" xlink:href="#New_Gradient_Swatch_copy_37"/><linearGradient id="New_Gradient_Swatch_copy_37-3" x1="407.56" y1="198.36" x2="371.5" y2="276.16" xlink:href="#New_Gradient_Swatch_copy_37"/><linearGradient id="linear-gradient-2" x1="381.93" y1="543.19" x2="425.12" y2="543.19" gradientTransform="matrix(0.99, 0.12, -0.12, 0.99, -137.34, -288.27)" gradientUnits="userSpaceOnUse"><stop offset="0" stop-color="#f75757"/><stop offset="1" stop-color="#cc1212"/></linearGradient><filter id="luminosity-noclip-2" x="197.47" y="283.42" width="51.5" height="55.99" filterUnits="userSpaceOnUse" color-interpolation-filters="sRGB"><feFlood flood-color="#fff" result="bg"/><feBlend in="SourceGraphic" in2="bg"/></filter><mask id="mask-2" x="197.47" y="283.42" width="51.5" height="55.99" maskUnits="userSpaceOnUse"><g class="cls-1"><path class="cls-2" d="M245.38,326.56c-8.22,14.73-28.5,12.77-28.5,12.77-6.66-3.68-13.12-7.05-19.41-10.18,16.56-15.4,23.89-45.73,23.89-45.73,6.16,3.31,12.63,6.66,19.47,10C245.74,297,253.64,311.84,245.38,326.56Z"/></g></mask><linearGradient id="linear-gradient-3" x1="390.81" y1="540.39" x2="441.39" y2="557.22" gradientTransform="matrix(0.99, 0.12, -0.12, 0.99, -137.34, -288.27)" gradientUnits="userSpaceOnUse"><stop offset="0" stop-color="#ffd571"/><stop offset="0.28" stop-color="#ffad54"/><stop offset="0.59" stop-color="#ff8539"/><stop offset="0.85" stop-color="#ff6d27"/><stop offset="1" stop-color="#ff6421"/></linearGradient><linearGradient id="linear-gradient-4" x1="288.39" y1="500.62" x2="288.61" y2="500.62" gradientTransform="translate(408.01 -237.95) rotate(63.52)" gradientUnits="userSpaceOnUse"><stop offset="0" stop-color="gray"/><stop offset="0.64" stop-color="#52524d"/><stop offset="1" stop-color="#3c3c35"/></linearGradient><linearGradient id="linear-gradient-5" x1="261.79" y1="465.12" x2="263.53" y2="465.12" gradientTransform="translate(285.17 -282.5) rotate(53.53)" xlink:href="#linear-gradient-4"/><linearGradient id="linear-gradient-6" x1="235.66" y1="13.16" x2="247.06" y2="13.16" gradientTransform="translate(161.15 -214.86) rotate(67.5)" gradientUnits="userSpaceOnUse"><stop offset="0" stop-color="#f7f7f7"/><stop offset="1" stop-color="#fff"/></linearGradient><linearGradient id="linear-gradient-7" x1="250.34" y1="14.46" x2="254.98" y2="14.46" gradientTransform="matrix(1, 0, 0, 1, 0, 0)" xlink:href="#linear-gradient-6"/><linearGradient id="linear-gradient-8" x1="257.65" y1="14.46" x2="260.93" y2="14.46" gradientTransform="matrix(1, 0, 0, 1, 0, 0)" xlink:href="#linear-gradient-6"/><linearGradient id="New_Gradient_Swatch_copy_35" x1="411.81" y1="332.42" x2="351.09" y2="335.27" gradientUnits="userSpaceOnUse"><stop offset="0" stop-color="#fbb48f"/><stop offset="0.23" stop-color="#f09788"/><stop offset="0.75" stop-color="#da5a78"/><stop offset="1" stop-color="#d14272"/></linearGradient><linearGradient id="linear-gradient-9" x1="351.53" y1="284.36" x2="353.43" y2="376.4" xlink:href="#New_Gradient_Swatch_copy_35"/><linearGradient id="New_Gradient_Swatch_copy_35-2" x1="354.96" y1="306.1" x2="352.12" y2="388.65" xlink:href="#New_Gradient_Swatch_copy_35"/><linearGradient id="New_Gradient_Swatch_copy_35-3" x1="294.38" y1="333.97" x2="352.25" y2="336.81" xlink:href="#New_Gradient_Swatch_copy_35"/><linearGradient id="New_Gradient_Swatch_copy_35-4" x1="352.36" y1="320.46" x2="350.47" y2="245.5" xlink:href="#New_Gradient_Swatch_copy_35"/><linearGradient id="linear-gradient-10" x1="273.99" y1="253.03" x2="278.87" y2="253.03" gradientUnits="userSpaceOnUse"><stop offset="0" stop-color="#ffecdc"/><stop offset="0.24" stop-color="#f6dac4"/><stop offset="0.74" stop-color="#e0ad87"/><stop offset="1" stop-color="#d39364"/></linearGradient><linearGradient id="linear-gradient-11" x1="197.35" y1="189.44" x2="201.77" y2="189.44" xlink:href="#linear-gradient-10"/><linearGradient id="New_Gradient_Swatch_copy_38" x1="187.29" y1="185.68" x2="204.56" y2="185.68" gradientUnits="userSpaceOnUse"><stop offset="0" stop-color="#595b68"/><stop offset="0.54" stop-color="#38404e"/><stop offset="1" stop-color="#202d3b"/></linearGradient><linearGradient id="linear-gradient-12" x1="193.38" y1="195.23" x2="199.56" y2="195.23" xlink:href="#linear-gradient-10"/><linearGradient id="linear-gradient-13" x1="190.92" y1="199.62" x2="202.35" y2="199.62" gradientUnits="userSpaceOnUse"><stop offset="0" stop-color="#fff"/><stop offset="0.37" stop-color="#f2f2ff"/><stop offset="1" stop-color="#d2d2ff"/></linearGradient><linearGradient id="New_Gradient_Swatch_3" x1="234.49" y1="169.24" x2="172.35" y2="280.25" gradientUnits="userSpaceOnUse"><stop offset="0" stop-color="#dbbafd"/><stop offset="0.11" stop-color="#d0aefd"/><stop offset="0.71" stop-color="#9371fc"/><stop offset="1" stop-color="#7c59fc"/></linearGradient><linearGradient id="linear-gradient-14" x1="220.1" y1="222.49" x2="214.7" y2="234.59" xlink:href="#linear-gradient-13"/><linearGradient id="linear-gradient-15" x1="234.51" y1="231.8" x2="231.26" y2="241.53" xlink:href="#linear-gradient-10"/><linearGradient id="linear-gradient-16" x1="198.29" y1="287.57" x2="198.31" y2="287.57" xlink:href="#linear-gradient-13"/><linearGradient id="linear-gradient-17" x1="248.34" y1="239.06" x2="255.17" y2="239.06" xlink:href="#linear-gradient-10"/><linearGradient id="linear-gradient-18" x1="295.55" y1="192.51" x2="308.18" y2="192.51" xlink:href="#linear-gradient-10"/><linearGradient id="linear-gradient-19" x1="296.03" y1="202.2" x2="303.78" y2="202.2" xlink:href="#linear-gradient-10"/><linearGradient id="New_Gradient_Swatch_copy_38-2" x1="287.26" y1="189.11" x2="309.87" y2="189.11" xlink:href="#New_Gradient_Swatch_copy_38"/><linearGradient id="linear-gradient-20" x1="296.23" y1="208.2" x2="304.96" y2="208.2" xlink:href="#linear-gradient-13"/><linearGradient id="New_Gradient_Swatch_copy_35-5" x1="261.08" y1="182.02" x2="314.69" y2="278.8" xlink:href="#New_Gradient_Swatch_copy_35"/><linearGradient id="New_Gradient_Swatch_copy_35-6" x1="320.87" y1="253.11" x2="269.64" y2="211.84" xlink:href="#New_Gradient_Swatch_copy_35"/><linearGradient id="linear-gradient-21" x1="293.05" y1="206.74" x2="298.22" y2="206.74" xlink:href="#linear-gradient-13"/><linearGradient id="New_Gradient_Swatch_copy_35-7" x1="255.32" y1="185.21" x2="308.93" y2="281.99" xlink:href="#New_Gradient_Swatch_copy_35"/><linearGradient id="linear-gradient-22" x1="250.42" y1="237.87" x2="257.86" y2="237.87" xlink:href="#linear-gradient-10"/><linearGradient id="linear-gradient-23" x1="250.51" y1="241.14" x2="254.47" y2="241.14" xlink:href="#linear-gradient-10"/><linearGradient id="linear-gradient-24" x1="-140.23" y1="-453.54" x2="-127.64" y2="-453.54" gradientTransform="translate(308.64 598.08)" xlink:href="#linear-gradient-13"/><linearGradient id="linear-gradient-25" x1="-140.23" y1="-448.68" x2="-124.16" y2="-448.68" gradientTransform="matrix(1, 0, 0, 1, 309.81, 597.48)" xlink:href="#linear-gradient-13"/><linearGradient id="linear-gradient-26" x1="-140.23" y1="-443.82" x2="-115.93" y2="-443.82" gradientTransform="matrix(1, 0, 0, 1, 310.9, 596.29)" xlink:href="#linear-gradient-13"/><linearGradient id="linear-gradient-27" x1="-140.23" y1="-439.26" x2="-137.68" y2="-439.26" gradientTransform="translate(312.41 598.88)" xlink:href="#linear-gradient-13"/><linearGradient id="linear-gradient-28" x1="-135.21" y1="-439.26" x2="-132.66" y2="-439.26" gradientTransform="translate(312.24 597.62)" xlink:href="#linear-gradient-13"/><linearGradient id="linear-gradient-29" x1="-130.19" y1="-439.26" x2="-127.64" y2="-439.26" gradientTransform="translate(312.09 596.35)" xlink:href="#linear-gradient-13"/><linearGradient id="linear-gradient-30" x1="714.99" y1="583.26" x2="727.58" y2="583.26" gradientTransform="translate(-423.03 -440.79)" xlink:href="#linear-gradient-13"/><linearGradient id="linear-gradient-31" x1="714.99" y1="588.12" x2="731.06" y2="588.12" gradientTransform="translate(-424 -440.55)" xlink:href="#linear-gradient-13"/><linearGradient id="linear-gradient-32" x1="714.99" y1="592.98" x2="739.29" y2="592.98" gradientTransform="translate(-425.02 -439.84)" xlink:href="#linear-gradient-13"/><linearGradient id="linear-gradient-33" x1="714.99" y1="597.54" x2="717.54" y2="597.54" gradientTransform="translate(-425.69 -442.05)" xlink:href="#linear-gradient-13"/><linearGradient id="linear-gradient-34" x1="720.01" y1="597.54" x2="722.56" y2="597.54" gradientTransform="translate(-425.8 -441.05)" xlink:href="#linear-gradient-13"/><linearGradient id="linear-gradient-35" x1="725.03" y1="597.54" x2="727.58" y2="597.54" gradientTransform="translate(-425.89 -440.09)" xlink:href="#linear-gradient-13"/><linearGradient id="New_Gradient_Swatch_copy_35-8" x1="-555.59" y1="-1116.06" x2="-534.83" y2="-1116.06" gradientTransform="translate(1159.47 913.46) rotate(-20.43)" xlink:href="#New_Gradient_Swatch_copy_35"/><linearGradient id="New_Gradient_Swatch_copy_35-9" x1="-566.25" y1="-1122.41" x2="-531.9" y2="-1122.41" gradientTransform="translate(1159.47 913.46) rotate(-20.43)" xlink:href="#New_Gradient_Swatch_copy_35"/><linearGradient id="New_Gradient_Swatch_copy_35-10" x1="-604.06" y1="-1560" x2="-600.4" y2="-1554.98" gradientTransform="translate(1505.44 1163.65) rotate(-27.35)" xlink:href="#New_Gradient_Swatch_copy_35"/><linearGradient id="New_Gradient_Swatch_copy_35-11" x1="-559.24" y1="-1106.09" x2="-551.64" y2="-1106.09" gradientTransform="translate(1159.47 913.46) rotate(-20.43)" xlink:href="#New_Gradient_Swatch_copy_35"/></defs><g class="cls-3"><g id="Layer_1" data-name="Layer 1"><ellipse class="cls-4" cx="242.01" cy="365.31" rx="237.83" ry="13.71"/><path class="cls-5" d="M305.16,282.89s48.32-106.66,153.57-119.67c0,0-16.25,31.12-50.91,59.76S305.16,282.89,305.16,282.89Z"/><path class="cls-6" d="M310.77,277.78c11.16-10.36,22.58-20.42,34.12-30.34,2.89-2.48,5.78-5,8.69-7.4l8.73-7.35q8.78-7.31,17.64-14.5c5.94-4.76,11.89-9.51,17.89-14.19s12.06-9.3,18.21-13.79,12.35-8.93,18.7-13.15c3.19-2.09,6.4-4.15,9.69-6.07q2.47-1.45,5-2.76A39.11,39.11,0,0,1,454.7,166a38.35,38.35,0,0,0-5,2.66q-2.43,1.47-4.79,3.06c-3.15,2.12-6.25,4.32-9.3,6.57s-6.1,4.53-9.11,6.84-6,4.62-9,7l-9,7q-4.47,3.54-8.91,7.1-8.91,7.13-17.76,14.3c-5.93,4.75-11.83,9.56-17.73,14.35l-17.72,14.36C334.55,258.79,322.72,268.35,310.77,277.78Z"/><path class="cls-7" d="M332.35,259.43S324,142.64,410.32,81c0,0,.54,35.1-16.27,76.8S332.35,259.43,332.35,259.43Z"/><path class="cls-6" d="M334.85,252.27c4.87-14.43,10.12-28.72,15.54-42.94,1.35-3.55,2.71-7.11,4.1-10.65l4.18-10.62c2.81-7.07,5.7-14.11,8.6-21.15s5.91-14,9-21,6.17-13.93,9.43-20.81,6.6-13.73,10.17-20.47c1.81-3.35,3.65-6.7,5.63-10,1-1.63,2-3.24,3.09-4.81a39.51,39.51,0,0,1,3.53-4.5,38.22,38.22,0,0,0-3.15,4.74c-1,1.63-1.88,3.29-2.76,5q-2.62,5-5,10.21t-4.75,10.35c-1.55,3.47-3.1,6.93-4.61,10.42l-4.52,10.46c-1.49,3.5-3,7-4.44,10.5q-4.46,10.5-8.81,21t-8.74,21.06l-8.73,21.08C346.7,224.24,340.86,238.28,334.85,252.27Z"/><path class="cls-8" d="M277.08,301.51s86.42-79,188.29-49.51c0,0-27.19,22.2-70.33,34.88S277.08,301.51,277.08,301.51Z"/><path class="cls-6" d="M284.25,299c14.34-5.13,28.8-9.88,43.31-14.45q5.44-1.72,10.9-3.39l10.93-3.31c7.29-2.18,14.6-4.28,21.92-6.38s14.67-4.06,22-6,14.75-3.8,22.17-5.51,14.87-3.34,22.36-4.72c3.76-.67,7.52-1.3,11.31-1.77q2.83-.36,5.69-.56a39,39,0,0,1,5.72,0,38.49,38.49,0,0,0-5.67.47q-2.82.38-5.62.93c-3.72.7-7.44,1.5-11.13,2.37s-7.39,1.76-11.07,2.7-7.36,1.87-11,2.85l-11,2.95q-5.51,1.49-11,3-11,3-22,6.14c-7.32,2-14.63,4.14-21.94,6.22l-21.95,6.22C313.59,290.94,299,295.07,284.25,299Z"/><path class="cls-9" d="M86.44,223.19c-2.21,5.22-4.69,10.57-7.4,16-2.53,5-5.17,9.85-7.85,14.44L45.74,251c4.79-.9,11.82-8.6,17.23-19.3,5.64-11.13,7.54-21.81,4.94-25.87Z"/><path class="cls-10" d="M221.36,283.42s-7.33,30.33-23.89,45.73c-5.59-2.8-11.06-5.39-16.34-7.74-2.55-1.16-5-2.27-7.51-3.31,16.56-15.4,25.18-47.73,25.18-47.73C205.78,274.69,213.27,279,221.36,283.42Z"/><path class="cls-11" d="M198.8,270.37s-8.62,32.33-25.18,47.73q-9.6-4.1-18.51-7.34c-3.19-1.19-6.29-2.28-9.33-3.29C93.28,289.9,62.13,294,52.3,296.2c12.41-12.57,25.3-30.74,36.14-52.29,0-.1.09-.19.13-.29s0,0,0-.06c11.43-22.73,18.51-45,20.83-62.91l0-.37S121.63,222.72,198.8,270.37Z"/><g class="cls-12"><path class="cls-13" d="M245.38,326.56c-8.22,14.73-28.5,12.77-28.5,12.77-6.66-3.68-13.12-7.05-19.41-10.18,16.56-15.4,23.89-45.73,23.89-45.73,6.16,3.31,12.63,6.66,19.47,10C245.74,297,253.64,311.84,245.38,326.56Z"/></g><rect class="cls-14" x="88.41" y="243.5" width="0.35" height="0.07" transform="translate(-163.47 183.33) rotate(-56.58)"/><rect class="cls-15" x="67.04" y="204.23" width="0.35" height="1.91" transform="translate(-128.04 113.03) rotate(-46.6)"/><path class="cls-11" d="M86.44,223.19,67.91,205.84c2.6,4.06.7,14.74-4.94,25.87-5.41,10.7-12.44,18.4-17.23,19.3l25.45,2.59C51.5,287.24,28.6,308.54,17,302.68c-13.21-6.66-6.85-45.9,14.19-87.63s49.11-70.66,62.31-64C105,156.89,101.39,187.85,86.44,223.19Z"/><path class="cls-9" d="M59.53,230c-4.94,9.78-11.26,16.54-14.13,15.1s-1.19-10.55,3.75-20.34S60.93,207,63.8,208.45,64.46,220.21,59.53,230Z"/><path class="cls-16" d="M100.3,142.51C83,133.77,49.72,164.82,26,211.85s-28.94,92.21-11.61,101c9.36,4.74,23.44-2.2,38.15-17.05C65,283.18,77.85,265,88.69,243.46a2.72,2.72,0,0,0,.11-.25s0,0,0,0h0s0,0,.05-.06l0-.05v0l0-.08s0,0,0-.08c.53-1.05,1-2.09,1.55-3.14.62-1.29,1.23-2.58,1.83-3.86,0,0,0-.05,0-.08l.6-1.32c.34-.74.67-1.47,1-2.21.26-.57.51-1.13.75-1.7.35-.79.69-1.59,1-2.38s.73-1.73,1.08-2.59.7-1.71,1-2.57.67-1.7,1-2.55.65-1.7,1-2.54l0-.09c.33-.88.65-1.76,1-2.63.4-1.13.79-2.25,1.17-3.37q1.38-4.05,2.53-8c.37-1.28.73-2.55,1.07-3.81.16-.59.32-1.18.47-1.77a.74.74,0,0,1,0-.14c.21-.82.41-1.63.61-2.44s.36-1.48.52-2.21c.25-1.05.47-2.1.69-3.13.15-.73.29-1.45.43-2.17s.32-1.66.46-2.47.24-1.42.35-2.12a.59.59,0,0,0,0-.13c.06-.39.12-.77.17-1.15q.17-1.08.3-2.13l0-.36C112.13,161,109.15,147,100.3,142.51ZM86.7,222.74c-2.22,5.22-4.69,10.57-7.4,16-2.53,5-5.18,9.85-7.86,14.44-19.69,33.64-42.59,54.94-54.2,49.08-13.21-6.66-6.85-45.9,14.2-87.63s48.86-70.22,62.05-63.52C105,156.89,101.64,187.4,86.7,222.74Z"/><path class="cls-17" d="M68.16,205.39l.12-.13L66.89,204l-.12.13c-4.51-2.27-13.36,6.25-19.8,19S39,248,43.46,250.28a3.93,3.93,0,0,0,2.53.28c4.79-.9,11.82-8.6,17.23-19.3C68.86,220.13,70.76,209.45,68.16,205.39Zm-8.38,24.15c-4.94,9.78-11.26,16.54-14.13,15.1s-1.19-10.55,3.75-20.34,11.26-16.54,14.12-15.1S64.71,219.75,59.78,229.54Z"/><path class="cls-18" d="M332.62,4H153.48a12.82,12.82,0,0,0-12.94,12.71V353.06a12.82,12.82,0,0,0,12.94,12.71H332.62a12.82,12.82,0,0,0,12.94-12.71V16.69A12.82,12.82,0,0,0,332.62,4Z"/><path class="cls-19" d="M333.1,147.74h0"/><circle class="cls-20" cx="241.36" cy="13.16" r="5.7" transform="translate(136.84 231.11) rotate(-67.5)"/><path class="cls-21" d="M255,14.46a2.32,2.32,0,1,1-2.32-2.32A2.32,2.32,0,0,1,255,14.46Z"/><path class="cls-22" d="M260.93,14.46a1.64,1.64,0,1,1-1.64-1.64A1.63,1.63,0,0,1,260.93,14.46Z"/><path class="cls-18" d="M137,121.05h0a3.57,3.57,0,0,1,3.57,3.57v20.78A3.57,3.57,0,0,1,137,149h0a0,0,0,0,1,0,0V121.05A0,0,0,0,1,137,121.05Z" transform="translate(277.51 270.03) rotate(-180)"/><path class="cls-18" d="M140.54,38.63h0a0,0,0,0,1,0,0v67.15a0,0,0,0,1,0,0h0a4.24,4.24,0,0,1-4.24-4.24V42.87A4.24,4.24,0,0,1,140.54,38.63Z"/><path class="cls-19" d="M193.35,259.05l-.07,0"/><polygon class="cls-6" points="274.2 22.22 213.03 22.22 149.3 22.22 149.3 348.79 336.76 348.79 336.76 22.22 274.2 22.22"/><polygon class="cls-23" points="399.33 301.64 400.35 364.4 358.5 330.5 396.94 301.68 399.33 301.64"/><polygon class="cls-24" points="396.94 301.68 358.5 330.5 346.23 330.7 306.87 303.15 396.94 301.68"/><polygon class="cls-25" points="400.35 364.4 305.5 365.94 346.23 330.7 358.5 330.5 400.35 364.4"/><polygon class="cls-26" points="346.23 330.7 305.5 365.94 304.48 303.19 306.87 303.15 346.23 330.7"/><polygon class="cls-27" points="399.28 299.06 399.33 302.01 304.48 303.56 304.43 300.6 351.3 265.44 399.28 299.06"/><path class="cls-28" d="M278.87,249.63V254a12.19,12.19,0,0,1-2.44.88c-1.37.33-1.15,1.72-2,1.52s-.2-2.78,0-4.5S278.87,249.63,278.87,249.63Z"/><path class="cls-6" d="M225.43,367.25c0,1.45-.79,1.81-2.38,1.81s-6,.36-6.76,0-2.78-1.53-2.78-.72c0,1.08-1.59,1.08-2.38.72s-.8-6.14-.8-6.14h6s2,.36,2.39,1.81S225.43,365.81,225.43,367.25Z"/><path class="cls-6" d="M195.37,367.25c0,1.45-.8,1.81-2.39,1.81s-6,.36-6.75,0-2.78-1.53-2.78-.72c0,1.08-1.59,1.08-2.39.72s-.79-6.14-.79-6.14h6s2,.36,2.38,1.81S195.37,365.81,195.37,367.25Z"/><path class="cls-29" d="M200.53,196a1.18,1.18,0,0,1-1-.51c-.64-.84-.72-2.49-1-3.07a3.59,3.59,0,0,1-.23-1.45,1.55,1.55,0,0,0-.17-.53c-.4-.8-1.59-4,0-4s.4,4.37,1.19,4,.4-5.17.8-6.76,1.59-.79,1.59,1.59c0,0,0,.44,0,1.13C201.81,189.17,201.8,196,200.53,196Z"/><path class="cls-30" d="M203.79,182.86c-1.08,1.62-1.29,2-.5,2.81s-1.22,1.1-1.53,1.25c0-.69,0-1.64,0-1.64,0-2.38-1.2-3.18-1.59-1.59s0,6.36-.8,6.76.4-4-1.19-4-.4,3.18,0,4a1.55,1.55,0,0,1,.17.53s-1,3-1.36,5h-3.58s-7.15-9.94-6-13.91,4.15-6.74,9.94-6.76c8.16,0,7.18,4.28,7.14,5.33A4.47,4.47,0,0,1,203.79,182.86Z"/><path class="cls-31" d="M193.4,198.69s0,.07,0,.1"/><path class="cls-32" d="M199.48,199.47a11.75,11.75,0,0,0-6.08-.78c.37-2.29,0-2.68,0-2.68H197c.4-2,1.36-5,1.36-5a3.59,3.59,0,0,0,.23,1.45c.29.58.37,2.23,1,3.07A10,10,0,0,0,199.48,199.47Z"/><path class="cls-33" d="M202.35,200.66a46.11,46.11,0,0,0-11.43-.85,18.49,18.49,0,0,1,2-1,4.8,4.8,0,0,1,.51-.1,11.75,11.75,0,0,1,6.08.78,12.53,12.53,0,0,1,1.3.61S201.43,200.3,202.35,200.66Z"/><path class="cls-34" d="M213.55,231.55c-3.55-3.85-7-7.7-7.12-7.86.1.42,3.82,15.7,7.11,35.66h-33c.49-15.61,1.82-49.94,4.08-53.6a18.64,18.64,0,0,1,6.34-5.94h0a46.11,46.11,0,0,1,11.43.85h0c1.76.69,4.47,1.89,5.46,3.1s7,10.42,11.44,17.18C219.2,221.16,216.75,228.19,213.55,231.55Z"/><path class="cls-11" d="M218.55,312.19l-2.12,50.73h-6.1s-1.58-46.43-4.23-56a104.89,104.89,0,0,0-7.81-19.28,202.7,202.7,0,0,0-17.8-28.26h33C216.23,275.68,218.64,295.15,218.55,312.19Z"/><path class="cls-9" d="M198.29,287.61l-6.37,32.59-5.58,42.72h-6.07c-.35-7.29,1.59-42.72,1.59-42.72-1.59-18.48-1.59-53.19-1.59-53.19s.07-3,.22-7.66A202.7,202.7,0,0,1,198.29,287.61Z"/><path class="cls-35" d="M221.28,224h0A19,19,0,0,1,216,234.2c-.81-.85-1.64-1.76-2.47-2.65,3.2-3.36,5.65-10.39,5.72-10.61C220,222,220.67,223.08,221.28,224Z"/><path class="cls-36" d="M248.75,241.68a.76.76,0,0,1-.41.11c-1.73,0-28.16-3.37-28.16-3.37-1-.94-2.52-2.48-4.16-4.22A19,19,0,0,0,221.28,224l2.68,4.12,24.38,9.49S249.75,241,248.75,241.68Z"/><line class="cls-37" x1="198.31" y1="287.54" x2="198.29" y2="287.61"/><path class="cls-31" d="M219.28,220.93h0"/><path class="cls-31" d="M202.35,200.66h0"/><path class="cls-31" d="M190.92,199.81h0"/><path class="cls-38" d="M255.12,240.27a.83.83,0,0,1-.07.13,3.07,3.07,0,0,1-.58.6,3.62,3.62,0,0,1-1.65.68,11.17,11.17,0,0,1-2.29.13c-1,0-1.78-.13-1.78-.13,1-.65-.41-4.06-.41-4.06s1.65-1.49,2.39-1.29a.61.61,0,0,1,.29.21,2.21,2.21,0,0,0-.5,1c-.48,2.1.85.63,1.52.79a2.23,2.23,0,0,0,1.18,1.2C254.41,239.81,255.42,239.57,255.12,240.27Z"/><path class="cls-11" d="M328.42,362.92h-6s-16-37.43-25-51.52a21.25,21.25,0,0,1-2.91-7L293,297.2,279.54,260h28.22s2.14,28.19,1.69,42a10,10,0,0,0,.78,4.21C313.36,313.62,323.26,342.65,328.42,362.92Z"/><path class="cls-39" d="M303.78,195.22c-.39-.4-.79,3.57-5.16,4h-.48c-2.38-.22-2.67-3.95-2.57-6.68a25.09,25.09,0,0,1,.27-2.86,29.31,29.31,0,0,1,1.59-2.78c.79-1.19,3.17-1.59,4,0s1.19,1.19,1.19,3.58,0,4.37,1.19,2.38,4-2.38,4.38,0S304.18,195.61,303.78,195.22Z"/><path class="cls-31" d="M298.14,199.19h0"/><path class="cls-40" d="M303.78,195.22V204s-5.16,2.38-7.15,4.77a2.6,2.6,0,0,1-.4.41h0c-.16.11-.21.07-.2-.09a36.8,36.8,0,0,1,2.19-5.1h0c.39-.39-.06-4.62-.08-4.77h.48C303,198.79,303.39,194.82,303.78,195.22Z"/><path class="cls-41" d="M308.16,194.82c-2,2.38-4.38,4.82-4.38,4.82v-4.42c.4.39,4.77,0,4.38-2.39s-3.18-2-4.38,0-1.19,0-1.19-2.38-.4-2-1.19-3.58-3.18-1.19-4,0a29.31,29.31,0,0,0-1.59,2.78,25.09,25.09,0,0,0-.27,2.86,8.19,8.19,0,0,1-3.31-1.27c-2-1.19.4-4,.4-4-6.76-.4-5.57-8.75-4.77-8.35s.79,2,8.74,0,8.35,5.17,8.35,5.17C311.73,184.88,310.14,192.43,308.16,194.82Z"/><path class="cls-42" d="M305,204.77l-4.75,7.53c-.4.4.39,0-.8-2a2.58,2.58,0,0,0-3.18-1.18,2.6,2.6,0,0,0,.4-.41c2-2.39,7.15-4.77,7.15-4.77S304.24,204.25,305,204.77Z"/><path class="cls-43" d="M312.57,211.56c-11.19-2.52-8.79,27.77-8.79,27.77-2.51,1.88-16.7,7.25-22.53,9.41l2.27-15-3.39,1.39c-11.08,1.87-22.27,4.47-22.27,4.47l-1.09-4.12c6-2.09,20.71-8.15,20.71-8.15,2,0,8.21-12.91,11-16.49,1.81-2.32,5.38-4.54,7.67-5.81a11.15,11.15,0,0,0-3.09,4.47s2-1.72,3-.46c0,.16,0,.2.2.09h0a2.58,2.58,0,0,1,3.18,1.18c1.19,2,.4,2.38.8,2l4.75-7.53A40.83,40.83,0,0,1,312.57,211.56Z"/><path class="cls-44" d="M312.13,247.67a25.83,25.83,0,0,1-4.37,1.15c-7.49,1.59-22.23,4.08-27.27,4.92l-1.74.29v-4.37l2.5-.92c5.83-2.16,20-7.53,22.53-9.41,0,0-2.4-30.29,8.79-27.77a14.05,14.05,0,0,1,1.55,2.33C316.5,218.66,314.12,246.48,312.13,247.67Z"/><path class="cls-45" d="M298.22,204a36.8,36.8,0,0,0-2.19,5.1c-1-1.26-3,.46-3,.46a11.15,11.15,0,0,1,3.09-4.47C297.31,204.4,298.14,204,298.22,204Z"/><path class="cls-46" d="M307.76,248.82V260H279.54l.95-6.25C285.53,252.9,300.27,250.41,307.76,248.82Z"/><line class="cls-31" x1="304.98" y1="204.75" x2="304.96" y2="204.77"/><path class="cls-9" d="M293,297.2c-1.67,4.37-3,7.91-3.54,9.69-2.39,7.55-8.75,49.67-10.73,56h-6L276,298.54,279.54,260Z"/><path class="cls-6" d="M278.75,362.92s0,5.78-.8,6.14-2.38.36-2.38-.72c0-.81-2,.36-2.78.72s-5.17,0-6.76,0-2.38-.36-2.38-1.81,6.35-1.08,6.75-2.52,2.39-1.81,2.39-1.81Z"/><path class="cls-6" d="M328.42,362.92s0,5.78-.79,6.14-2.39.36-2.39-.72c0-.81-2,.36-2.78.72s-5.16,0-6.75,0-2.39-.36-2.39-1.81,6.36-1.08,6.76-2.52,2.38-1.81,2.38-1.81Z"/><path class="cls-47" d="M255.12,240.27c.3-.7-.71-.46-1.9-.76a2.23,2.23,0,0,1-1.18-1.2c-.67-.16-2,1.31-1.52-.79a2.21,2.21,0,0,1,.5-1,5,5,0,0,1,2.35-1,10.27,10.27,0,0,1,3.4,0l1.09,4.12-2.81.78A.83.83,0,0,0,255.12,240.27Z"/><path class="cls-48" d="M250.51,241.87s.41-1.78,1.16-1.63.61.26,1.23.1a2.27,2.27,0,0,1,1.41,0c.1.13.32.9,0,1.1S251,242.37,250.51,241.87Z"/><path class="cls-11" d="M198.89,135.33l5,19.25a2.92,2.92,0,0,1-2.18,3.52l-35.37,9.2-5.73-22a2.93,2.93,0,0,1,2.18-3.53l32.47-8.45A2.92,2.92,0,0,1,198.89,135.33Z"/><rect class="cls-49" x="168.39" y="143.47" width="12.6" height="2.1" transform="translate(-30.77 48.66) rotate(-14.59)"/><rect class="cls-50" x="169.56" y="147.74" width="16.07" height="2.1" transform="translate(-31.75 49.53) rotate(-14.59)"/><rect class="cls-51" x="170.65" y="151.4" width="24.3" height="2.1" transform="matrix(0.97, -0.25, 0.25, 0.97, -32.5, 50.96)"/><rect class="cls-52" x="172.15" y="158.55" width="2.56" height="2.1" transform="translate(-34.61 48.82) rotate(-14.59)"/><rect class="cls-53" x="177.01" y="157.29" width="2.56" height="2.1" transform="translate(-34.13 50.01) rotate(-14.59)"/><rect class="cls-54" x="181.87" y="156.03" width="2.56" height="2.1" transform="translate(-33.65 51.18) rotate(-14.59)"/><polygon class="cls-9" points="176.09 164.77 178.29 173.21 166.35 167.31 176.09 164.77"/><path class="cls-55" d="M285.06,137l-3.86,19.51a2.94,2.94,0,0,0,2.39,3.39L319.44,167l4.41-22.32a2.93,2.93,0,0,0-2.38-3.4l-32.91-6.51A2.93,2.93,0,0,0,285.06,137Z"/><rect class="cls-56" x="291.98" y="141.4" width="12.6" height="2.1" transform="translate(33.31 -55.17) rotate(11.19)"/><rect class="cls-57" x="291.01" y="146.5" width="16.07" height="2.1" transform="translate(34.31 -55.22) rotate(11.19)"/><rect class="cls-58" x="289.98" y="152.07" width="24.3" height="2.1" transform="translate(35.45 -55.72) rotate(11.19)"/><rect class="cls-59" x="289.31" y="154.43" width="2.56" height="2.1" transform="translate(35.69 -53.42) rotate(11.19)"/><rect class="cls-60" x="294.23" y="155.41" width="2.56" height="2.1" transform="translate(35.98 -54.37) rotate(11.19)"/><rect class="cls-61" x="299.15" y="156.38" width="2.56" height="2.1" transform="translate(36.26 -55.3) rotate(11.19)"/><polygon class="cls-62" points="309.57 165.02 307.87 173.57 319.44 166.97 309.57 165.02"/><path class="cls-11" d="M251.35,74.67c0,.12-3,12.59-15,18.87-10.5,5.49-24.51,4.75-41.65-2.19-38.76-15.71-61.78-5.41-70.39,9.47-9.5,16.4-2.35,38.79,16.24,54v1.28c-19.44-15.53-27-38.77-17.11-55.79,8.83-15.25,32.28-25.85,71.64-9.9,16.84,6.83,30.56,7.58,40.79,2.24,11.62-6.06,14.48-18.09,14.51-18.22a.49.49,0,0,1,.6-.37A.5.5,0,0,1,251.35,74.67Z"/><polygon class="cls-63" points="263.41 40.16 264.83 71.72 256.2 68.97 251.42 67.45 263.41 40.16"/><polygon class="cls-64" points="263.41 40.16 244.83 65.61 236.91 67.42 263.41 40.16"/><polygon class="cls-65" points="263.41 40.16 251.42 67.45 250.53 75.5 244.83 65.61 263.41 40.16"/><polygon class="cls-66" points="256.2 68.97 250.53 75.5 251.42 67.45 256.2 68.97"/></g></g></svg>