<svg id="Layer_1" data-name="Layer 1" xmlns="http://www.w3.org/2000/svg" viewBox="0 0 96.68 84.42"><defs><style>.cls-1{fill:#ef5050;}</style></defs><path class="cls-1" d="M43.83,39.28H25.22A1.22,1.22,0,0,1,24,38.07V21a1.22,1.22,0,0,1,1.22-1.22H43.83A1.22,1.22,0,0,1,45.05,21v17.1A1.22,1.22,0,0,1,43.83,39.28ZM26.44,36.85H42.61V22.18H26.44Z"/><path class="cls-1" d="M71.46,39.28H52.85a1.22,1.22,0,0,1-1.22-1.21V21a1.22,1.22,0,0,1,1.22-1.22H71.46A1.22,1.22,0,0,1,72.68,21v17.1A1.22,1.22,0,0,1,71.46,39.28ZM54.07,36.85H70.24V22.18H54.07Z"/><path class="cls-1" d="M43.83,64.67H25.22A1.22,1.22,0,0,1,24,63.46V46.36a1.22,1.22,0,0,1,1.22-1.22H43.83a1.22,1.22,0,0,1,1.22,1.22v17.1A1.22,1.22,0,0,1,43.83,64.67ZM26.44,62.24H42.61V47.57H26.44Z"/><path class="cls-1" d="M71.46,64.67H52.85a1.22,1.22,0,0,1-1.22-1.21V46.36a1.22,1.22,0,0,1,1.22-1.22H71.46a1.22,1.22,0,0,1,1.22,1.22v17.1A1.22,1.22,0,0,1,71.46,64.67ZM54.07,62.24H70.24V47.57H54.07Z"/></svg>