<svg id="Layer_1" data-name="Layer 1" xmlns="http://www.w3.org/2000/svg" viewBox="0 0 96.68 84.42"><defs><style>.cls-1{fill:#ef5050;}</style></defs><path class="cls-1" d="M57.33,41.35V55.26H52.57V27.66h4.76V39.84L71.94,27.66H74a21.53,21.53,0,0,0-17.4-8.81,17.26,17.26,0,0,0-4.29.46l-1-5.1a2.55,2.55,0,0,0,1.51-2.32,2.63,2.63,0,0,0-2.67-2.67,2.43,2.43,0,0,0-2.55,2.55,2.62,2.62,0,0,0,2.66,2.67l.93,5.1a21.88,21.88,0,0,0-15,13.69l-9.86-2.67v-.23a3.9,3.9,0,0,0-3.94-3.94,4,4,0,0,0-3.83,3.94,3.91,3.91,0,0,0,3.95,3.94,4,4,0,0,0,3.47-2L35.87,35a21.73,21.73,0,0,0,1.51,15L33,52.36a2.28,2.28,0,0,0-1.62-.69,2.19,2.19,0,0,0-2.2,2.2,2.28,2.28,0,0,0,2.2,2.21,2.2,2.2,0,0,0,2.2-2.21v-.23L38,51.2A21.79,21.79,0,0,0,48.4,60.37l-2,8.11a3.37,3.37,0,0,0,.11,6.73,3.47,3.47,0,0,0,3.37-3.48,3.42,3.42,0,0,0-1.63-2.9L50.14,61a20.2,20.2,0,0,0,6.49,1A21.62,21.62,0,0,0,72.75,54.8l-.46.12Z"/><path class="cls-1" d="M61.27,39.26,75,51.67a21.88,21.88,0,0,0,3.13-11.25,21.45,21.45,0,0,0-3.83-12.3Z"/></svg>