<svg id="Layer_1" data-name="Layer 1" xmlns="http://www.w3.org/2000/svg" viewBox="0 0 96.68 84.42"><defs><style>.cls-1{fill:#ef5050;}</style></defs><path class="cls-1" d="M83.7,37.37V57.51a9.25,9.25,0,0,1,2.43.32V41.63A10.42,10.42,0,0,1,83.7,37.37ZM57.14,66.81l10.09,2.43h7.51a9.9,9.9,0,0,1,1.45-2.43Zm27.78-42.5H11.78a1.22,1.22,0,0,0-1.22,1.22V68a1.22,1.22,0,0,0,1.22,1.22H84.92a1.2,1.2,0,0,0,.54-.13A1.21,1.21,0,0,0,86.13,68V25.53A1.22,1.22,0,0,0,84.92,24.31ZM83.7,66.81H13V26.75H83.7Zm-26.56,0,10.09,2.43h7.51a9.9,9.9,0,0,1,1.45-2.43ZM83.7,37.37V57.51a9.25,9.25,0,0,1,2.43.32V41.63A10.42,10.42,0,0,1,83.7,37.37Z"/><path class="cls-1" d="M52.54,33.75a13.17,13.17,0,0,0-3.34-.63c-.28,0-.56,0-.85,0a13.69,13.69,0,1,0,5.55,26.2A13.76,13.76,0,0,0,62,46.78,13.71,13.71,0,0,0,52.54,33.75Zm1.07,23.89a11.51,11.51,0,0,1-3.07,1,11.29,11.29,0,0,1-2.19.21,12.07,12.07,0,0,1-2.08-24,11.92,11.92,0,0,1,2.08-.18c.39,0,.77,0,1.14,0a12.08,12.08,0,0,1,4.12,22.89Z"/><path class="cls-1" d="M84.64,36c-.31,0-.62,0-.94,0h-.3A9.32,9.32,0,0,1,75,29.89a9.6,9.6,0,0,1-.53-2.64c0-.17,0-.33,0-.5a9,9,0,0,1,.33-2.44H73.45a10.32,10.32,0,0,0-.29,2.44V27A10.54,10.54,0,0,0,83.67,37.28h0c.42,0,.83,0,1.24-.07h0A11.65,11.65,0,0,0,86.13,37V35.72A9.11,9.11,0,0,1,84.64,36Z"/><path class="cls-1" d="M83.7,56.27A10.55,10.55,0,0,0,73.16,66.81a10.77,10.77,0,0,0,.28,2.43h1.29a9.3,9.3,0,0,1,11.4-11.41V56.55A10.77,10.77,0,0,0,83.7,56.27Z"/><path class="cls-1" d="M21.61,60.76a10.44,10.44,0,0,0-4.19-3.51,9.35,9.35,0,0,0-1.68-.62,10.1,10.1,0,0,0-2.42-.35H13a10.32,10.32,0,0,0-2.44.29v1.28A9,9,0,0,1,13,57.51h0A9.31,9.31,0,0,1,22,69.24h1.28a10.77,10.77,0,0,0,.28-2.43A10.44,10.44,0,0,0,21.61,60.76Z"/><path class="cls-1" d="M19,35.36a10.44,10.44,0,0,0,3.51-4.19,9.35,9.35,0,0,0,.62-1.68,10.1,10.1,0,0,0,.35-2.42c0-.1,0-.21,0-.32a10.32,10.32,0,0,0-.29-2.44H22a9,9,0,0,1,.33,2.44v0a9.31,9.31,0,0,1-11.73,8.94V37a10.77,10.77,0,0,0,2.43.28A10.44,10.44,0,0,0,19,35.36Z"/><path class="cls-1" d="M34.35,17.61a8.85,8.85,0,0,1-.25,2.44h0a9.32,9.32,0,0,1-6.3,6.69h2.93a10.42,10.42,0,0,0,2.69-2.44,10.62,10.62,0,0,0,1.89-4,10.84,10.84,0,0,0,.29-2.44ZM20.6,26l-.18.73h1.87A9.08,9.08,0,0,1,20.6,26Z"/><path class="cls-1" d="M22.93,26.75l.44-1.83.15-.61,1.55-6.43,9,2.17h0l1.21.29,16.47,4,10.13,2.44H72.34L62.21,24.31,35.6,17.91l-1.25-.3-9.9-2.39a1.23,1.23,0,0,0-1.47.9l-2,8.19L20.6,26l-.18.73Z"/></svg>