<svg id="Layer_1" data-name="Layer 1" xmlns="http://www.w3.org/2000/svg" viewBox="0 0 96.68 84.42"><defs><style>.cls-1{fill:#ef5050;}</style></defs><path class="cls-1" d="M60.76,38.36A8.57,8.57,0,0,1,54.7,23.73a8.77,8.77,0,0,1,12.12,0,8.57,8.57,0,0,1,0,12.12h0A8.49,8.49,0,0,1,60.76,38.36Zm0-14.71a6.14,6.14,0,0,0-4.34,10.48,6.28,6.28,0,0,0,8.68,0h0a6.14,6.14,0,0,0-4.34-10.48Z"/><path class="cls-1" d="M35.92,63.2A8.57,8.57,0,1,1,42,60.69h0A8.52,8.52,0,0,1,35.92,63.2Zm0-14.71A6.14,6.14,0,1,0,40.26,59h0a6.14,6.14,0,0,0-4.34-10.48Z"/><path class="cls-1" d="M60.76,63.21a8.52,8.52,0,0,1-6.06-2.52h0a8.57,8.57,0,0,1,0-12.12,8.77,8.77,0,0,1,12.12,0,8.58,8.58,0,0,1-6.06,14.64Zm0-14.72A6.14,6.14,0,0,0,56.42,59h0a6.28,6.28,0,0,0,8.68,0,6.14,6.14,0,0,0-4.34-10.48Z"/><path class="cls-1" d="M35.92,38.36a8.58,8.58,0,0,1-6.07-2.51h0A8.57,8.57,0,1,1,42,23.73a8.57,8.57,0,0,1-6.06,14.63Zm-4.35-4.23a6.14,6.14,0,1,0,0-8.68,6.15,6.15,0,0,0,0,8.68Z"/><rect class="cls-1" x="38.13" y="40.99" width="20.42" height="2.43" transform="translate(-15.69 46.54) rotate(-45)"/><rect class="cls-1" x="47.12" y="32" width="2.43" height="20.42" transform="translate(-15.69 46.55) rotate(-45)"/></svg>