<svg id="Layer_1" data-name="Layer 1" xmlns="http://www.w3.org/2000/svg" viewBox="0 0 96.68 84.42"><defs><style>.cls-1{fill:#ef5050;}</style></defs><path class="cls-1" d="M79.91,64.67H16.77a1.21,1.21,0,0,1-1.21-1.21V21a1.21,1.21,0,0,1,1.21-1.22H79.91A1.21,1.21,0,0,1,81.12,21V63.46A1.21,1.21,0,0,1,79.91,64.67ZM18,62.24h60.7V22.18H18Z"/><path class="cls-1" d="M48.37,45.58a1.23,1.23,0,0,1-.73-.24L16.05,22a1.22,1.22,0,0,1,.72-2.2H79.91a1.21,1.21,0,0,1,1.15.84,1.2,1.2,0,0,1-.43,1.35L49.09,45.34A1.22,1.22,0,0,1,48.37,45.58ZM20.46,22.18,48.37,42.85,76.23,22.18Z"/></svg>