<svg id="Layer_1" data-name="Layer 1" xmlns="http://www.w3.org/2000/svg" viewBox="0 0 96.68 84.42"><defs><style>.cls-1{fill:#ef5050;}</style></defs><path class="cls-1" d="M34.22,42.68H28.09a1.21,1.21,0,0,1-1.21-1.08l-.32-2.81a12.24,12.24,0,0,1-2.63-1.5l-2.68,1.15a1.22,1.22,0,0,1-1.53-.5l-3.06-5.17a1.21,1.21,0,0,1,.33-1.6l2.34-1.68A12,12,0,0,1,19.24,28a11.84,11.84,0,0,1,.09-1.47L17,24.86a1.22,1.22,0,0,1-.33-1.61l3.06-5.17a1.21,1.21,0,0,1,1.53-.49l2.68,1.15a12.49,12.49,0,0,1,2.63-1.5l.32-2.81a1.21,1.21,0,0,1,1.21-1.08h6.13a1.23,1.23,0,0,1,1.21,1.08l.31,2.81c.42.17.82.37,1.22.58A1.22,1.22,0,0,1,35.79,20a9,9,0,0,0-1.56-.69,1.21,1.21,0,0,1-.82-1l-.28-2.48h-4l-.28,2.48a1.22,1.22,0,0,1-.83,1,9.81,9.81,0,0,0-3.17,1.8,1.24,1.24,0,0,1-1.27.19l-2.36-1-1.95,3.3,2,1.47a1.22,1.22,0,0,1,.48,1.23,9.35,9.35,0,0,0,0,3.55A1.22,1.22,0,0,1,21.36,31l-2,1.47,1.95,3.3,2.36-1A1.24,1.24,0,0,1,24.9,35a9.71,9.71,0,0,0,3.17,1.8,1.22,1.22,0,0,1,.83,1l.28,2.48h4l.28-2.48a1.24,1.24,0,0,1,.82-1,9.15,9.15,0,0,0,1.44-.61,1.21,1.21,0,1,1,1.14,2.14,11.72,11.72,0,0,1-1.07.51l-.31,2.81A1.23,1.23,0,0,1,34.22,42.68Z"/><path class="cls-1" d="M31.15,33.71a5.7,5.7,0,1,1,5.7-5.7A5.7,5.7,0,0,1,31.15,33.71Zm0-9A3.27,3.27,0,1,0,34.42,28,3.26,3.26,0,0,0,31.15,24.75Z"/><path class="cls-1" d="M59.55,48.66A20.65,20.65,0,1,1,80.19,28,20.67,20.67,0,0,1,59.55,48.66Zm0-38.86A18.22,18.22,0,1,0,77.76,28,18.23,18.23,0,0,0,59.55,9.8Z"/><path class="cls-1" d="M57.65,77.05H49.49A1.21,1.21,0,0,1,48.28,76l-.45-4A15.31,15.31,0,0,1,44,69.82L40.2,71.44a1.22,1.22,0,0,1-1.53-.5L34.59,64a1.22,1.22,0,0,1,.34-1.61l3.31-2.38a14.46,14.46,0,0,1,0-4.29l-3.31-2.38a1.22,1.22,0,0,1-.34-1.61l4.08-6.9a1.21,1.21,0,0,1,1.53-.5l4.48,1.91a1.22,1.22,0,0,1-1,2.24L40.22,47l-3,5,3,2.18a1.2,1.2,0,0,1,.48,1.23,12.08,12.08,0,0,0,0,4.89,1.2,1.2,0,0,1-.48,1.23l-3,2.18,3,5,3.5-1.5a1.22,1.22,0,0,1,1.27.19,13,13,0,0,0,4.34,2.45,1.22,1.22,0,0,1,.83,1l.42,3.67h6L57,71a1.22,1.22,0,0,1,.83-1,12.91,12.91,0,0,0,4.34-2.45,1.22,1.22,0,0,1,1.27-.19l3.5,1.5,3-5-3-2.18a1.2,1.2,0,0,1-.48-1.23,12.08,12.08,0,0,0,0-4.89,1.2,1.2,0,0,1,.48-1.23l3.93-2.83a1.22,1.22,0,1,1,1.42,2L68.9,55.76a14.46,14.46,0,0,1,0,4.29l3.31,2.38A1.21,1.21,0,0,1,72.55,64l-4.08,6.9a1.21,1.21,0,0,1-1.52.5l-3.81-1.62A15.55,15.55,0,0,1,59.31,72l-.45,4A1.21,1.21,0,0,1,57.65,77.05Z"/><path class="cls-1" d="M53.57,65.1a7.2,7.2,0,1,1,7.2-7.2A7.2,7.2,0,0,1,53.57,65.1Zm0-12a4.77,4.77,0,1,0,4.76,4.76A4.76,4.76,0,0,0,53.57,53.14Z"/><path class="cls-1" d="M59.55,36.7a1.22,1.22,0,0,1-1.22-1.21V26.24h-.28a1.22,1.22,0,0,1,0-2.43h1.5A1.22,1.22,0,0,1,60.77,25V35.49A1.22,1.22,0,0,1,59.55,36.7Z"/><path class="cls-1" d="M59.55,20.26h-1.5a1.22,1.22,0,0,1,0-2.43h1.5a1.22,1.22,0,1,1,0,2.43Z"/><path class="cls-1" d="M61,36.7h-3a1.22,1.22,0,0,1,0-2.43h3a1.22,1.22,0,1,1,0,2.43Z"/></svg>