<svg id="Layer_1" data-name="Layer 1" xmlns="http://www.w3.org/2000/svg" viewBox="0 0 96.68 84.42"><defs><style>.cls-1{fill:#ef5050;}</style></defs><path class="cls-1" d="M31.39,72.28a13.46,13.46,0,0,1-3.45-.46,2.16,2.16,0,0,1-1-3.61l4.87-4.87a1.5,1.5,0,0,0,.44-1.07,1.54,1.54,0,0,0-.44-1.07l-2.49-2.48a1.51,1.51,0,0,0-2.14,0l-4.86,4.86a2.16,2.16,0,0,1-3.61-.95A13.07,13.07,0,0,1,33.29,46.22L52.35,27.15A13.07,13.07,0,0,1,68.76,12.61a2.16,2.16,0,0,1,1.51,1.53,2.13,2.13,0,0,1-.56,2.08l-4.86,4.86a1.54,1.54,0,0,0-.44,1.07,1.5,1.5,0,0,0,.44,1.07l2.49,2.49a1.57,1.57,0,0,0,2.14,0l4.86-4.86a2.16,2.16,0,0,1,3.61,1A13.11,13.11,0,0,1,63.39,38.24l-19,19a13.07,13.07,0,0,1-3.69,11.19A13.21,13.21,0,0,1,31.39,72.28ZM29,69.58A10.89,10.89,0,0,0,39,66.72a10.62,10.62,0,0,0,2.91-9.64,1.22,1.22,0,0,1,.34-1.1l19.9-19.91a1.24,1.24,0,0,1,1.1-.33A10.68,10.68,0,0,0,75.72,22.91L71.2,27.43a4,4,0,0,1-5.58,0l-2.49-2.49a3.95,3.95,0,0,1,0-5.57l4.52-4.53a10.65,10.65,0,0,0-12.8,12.5,1.21,1.21,0,0,1-.34,1.09l-19.95,20a1.18,1.18,0,0,1-1.09.33,10.78,10.78,0,0,0-9.22,2.51A10.62,10.62,0,0,0,21,61.52L25.5,57a4,4,0,0,1,5.58,0l2.49,2.48a4,4,0,0,1,0,5.58Z"/><path class="cls-1" d="M65.27,72.28a13.1,13.1,0,0,1-12.92-15l-4.87-4.85a1.22,1.22,0,0,1,1.72-1.73L54.52,56a1.21,1.21,0,0,1,.33,1.1A10.65,10.65,0,0,0,67.66,69.57l-4.52-4.52A3.86,3.86,0,0,1,62,62.3a4,4,0,0,1,1.16-2.82L65.6,57a4,4,0,0,1,5.6,0l4.58,4.57a16.82,16.82,0,0,0,.2-2.39,10.77,10.77,0,0,0-3.11-7.57,10.61,10.61,0,0,0-9.65-2.93,1.2,1.2,0,0,1-1.1-.33l-5.27-5.27a1.22,1.22,0,0,1,1.72-1.72l4.83,4.83A13.16,13.16,0,0,1,78,62.62a2.33,2.33,0,0,1-1.45,1.5,2.27,2.27,0,0,1-2.17-.55l-4.86-4.86a1.54,1.54,0,0,0-2.17,0L64.86,61.2a1.51,1.51,0,0,0-.45,1.08,1.45,1.45,0,0,0,.44,1l4.87,4.87a2.18,2.18,0,0,1,.54,2.14,2,2,0,0,1-1.55,1.48A12.73,12.73,0,0,1,65.27,72.28Zm2.84-2.82h0ZM39,43.42a1.2,1.2,0,0,1-.86-.35l-4.88-4.86A13.08,13.08,0,0,1,18.74,21.79a2.22,2.22,0,0,1,1.55-1.52,2.19,2.19,0,0,1,2.11.62l4.82,4.82a1.59,1.59,0,0,0,2.18,0l2.44-2.47a1.5,1.5,0,0,0,.43-1.06,1.55,1.55,0,0,0-.43-1.1L27,16.23a2.17,2.17,0,0,1-.53-2.14A2,2,0,0,1,28,12.6,13.14,13.14,0,0,1,40.67,16a13,13,0,0,1,3.7,11.2L49.22,32a1.22,1.22,0,0,1-1.71,1.73l-5.3-5.28a1.22,1.22,0,0,1-.34-1.1A10.67,10.67,0,0,0,29,14.85l4.52,4.49a4,4,0,0,1,1.14,2.84A4,4,0,0,1,33.55,25L31.1,27.43a4.07,4.07,0,0,1-5.6,0L21,22.9a10.62,10.62,0,0,0,3.28,10.31,10.75,10.75,0,0,0,9.21,2.51,1.21,1.21,0,0,1,1.09.33l5.33,5.3a1.23,1.23,0,0,1,0,1.72A1.24,1.24,0,0,1,39,43.42ZM20.64,22.57h0Zm8-7.61h0Z"/></svg>