<svg id="Layer_1" data-name="Layer 1" xmlns="http://www.w3.org/2000/svg" viewBox="0 0 96.68 84.42"><defs><style>.cls-1{fill:#ef5050;}</style></defs><path class="cls-1" d="M41.47,68.62a1.2,1.2,0,0,1-.79-.3L32.26,61H27.89A12.54,12.54,0,0,1,15.36,48.51V28.36A12.56,12.56,0,0,1,27.91,15.81H68.79A12.54,12.54,0,0,1,81.32,28.33V48.48A12.56,12.56,0,0,1,68.77,61H50.69l-8.41,7.29A1.23,1.23,0,0,1,41.47,68.62ZM27.91,18.25a10.12,10.12,0,0,0-10.1,10.11V48.51A10.1,10.1,0,0,0,27.89,58.59h4.83a1.19,1.19,0,0,1,.8.3l7.95,6.89,8-6.9a1.21,1.21,0,0,1,.8-.29H68.77a10.12,10.12,0,0,0,10.1-10.11V28.33A10.09,10.09,0,0,0,68.79,18.25Z"/><path class="cls-1" d="M52.07,53.7a1.23,1.23,0,0,1-.8-.3l-4.42-3.82H37.23a7.4,7.4,0,0,1-7.38-7.39V31.24a7.38,7.38,0,0,1,7.37-7.38H59.45a7.4,7.4,0,0,1,7.39,7.39v11a7.39,7.39,0,0,1-7.38,7.37H57.3l-4.43,3.83A1.25,1.25,0,0,1,52.07,53.7ZM37.22,26.31a4.93,4.93,0,0,0-4.93,4.93v11a5,5,0,0,0,4.94,4.94H47.31a1.24,1.24,0,0,1,.8.3l4,3.43,4-3.43a1.22,1.22,0,0,1,.8-.3h2.62a4.93,4.93,0,0,0,4.93-4.92v-11a4.94,4.94,0,0,0-4.94-4.94Z"/></svg>