<svg id="Layer_1" data-name="Layer 1" xmlns="http://www.w3.org/2000/svg" viewBox="0 0 96.68 84.42"><defs><style>.cls-1{fill:#ef5050;}</style></defs><path class="cls-1" d="M74.46,34.74H22.22a6,6,0,0,1-6-6V21.44a6,6,0,0,1,6-6H74.46a6,6,0,0,1,6,6v7.29A6,6,0,0,1,74.46,34.74ZM22.22,17.87a3.57,3.57,0,0,0-3.57,3.57v7.29a3.57,3.57,0,0,0,3.57,3.56H74.46A3.57,3.57,0,0,0,78,28.73V21.44a3.57,3.57,0,0,0-3.57-3.57Z"/><path class="cls-1" d="M37.07,69H22.22a6,6,0,0,1-6-6V45a6,6,0,0,1,6-6H37.07a6,6,0,0,1,6,6V63A6,6,0,0,1,37.07,69ZM22.22,41.41A3.57,3.57,0,0,0,18.65,45V63a3.57,3.57,0,0,0,3.57,3.57H37.07A3.58,3.58,0,0,0,40.64,63V45a3.58,3.58,0,0,0-3.57-3.56Z"/><path class="cls-1" d="M74.46,52.44H54.25a6,6,0,0,1-6-6V45a6,6,0,0,1,6-6H74.46a6,6,0,0,1,6,6v1.46A6,6,0,0,1,74.46,52.44Zm-20.21-11A3.56,3.56,0,0,0,50.69,45v1.46A3.56,3.56,0,0,0,54.25,50H74.46A3.57,3.57,0,0,0,78,46.43V45a3.57,3.57,0,0,0-3.57-3.56Z"/><path class="cls-1" d="M74.46,69H54.25a6,6,0,0,1-6-6V61.53a6,6,0,0,1,6-6H74.46a6,6,0,0,1,6,6V63A6,6,0,0,1,74.46,69ZM54.25,58a3.56,3.56,0,0,0-3.56,3.57V63a3.56,3.56,0,0,0,3.56,3.57H74.46A3.57,3.57,0,0,0,78,63V61.53A3.57,3.57,0,0,0,74.46,58Z"/></svg>