<svg id="Layer_1" data-name="Layer 1" xmlns="http://www.w3.org/2000/svg" viewBox="0 0 96.68 84.42"><defs><style>.cls-1{fill:#ef5050;}</style></defs><path class="cls-1" d="M71.54,65.33a1.21,1.21,0,0,1-1.22-1.21V19a4.9,4.9,0,0,0-5.23-5.23h-9a1.22,1.22,0,0,1,0-2.43h9A7.33,7.33,0,0,1,72.75,19v45.1A1.21,1.21,0,0,1,71.54,65.33Z"/><path class="cls-1" d="M71.54,73.07H50.92a1.22,1.22,0,0,1,0-2.44H71.54c2.83,0,4.77-2,5.15-5.3H48.22c-.39,4.87-3.17,7.74-7.61,7.74A7.33,7.33,0,0,1,33,65.41V57.68a1.22,1.22,0,1,1,2.43,0v7.73a4.9,4.9,0,0,0,5.23,5.22c3.37,0,5.23-2.31,5.23-6.51a1.22,1.22,0,0,1,1.21-1.22H78a1.22,1.22,0,0,1,1.21,1.22C79.19,69.47,76.12,73.07,71.54,73.07Z"/><path class="cls-1" d="M57.17,53.74a1.17,1.17,0,0,1-.45-.09c-4.95-2-9.95-3.35-10.92-3A19.91,19.91,0,0,1,38,52.45,20.55,20.55,0,1,1,58.58,31.9a19.85,19.85,0,0,1-1.77,7.79c-.54,1.29.38,7.52,1.55,12.56a1.2,1.2,0,0,1-.4,1.19A1.16,1.16,0,0,1,57.17,53.74ZM46.23,48.23c2.46,0,6.55,1.34,9.27,2.35-.72-3.54-1.8-9.75-.93-11.83a17.67,17.67,0,0,0,1.57-6.85A18.11,18.11,0,1,0,38,50a17.51,17.51,0,0,0,6.84-1.58A3.74,3.74,0,0,1,46.23,48.23Z"/><path class="cls-1" d="M40.67,44.72H35.39a1.24,1.24,0,0,1-1.21-1.08l-.26-2.33a10.72,10.72,0,0,1-2.14-1.21l-2.23.95a1.22,1.22,0,0,1-1.53-.5l-2.63-4.46a1.22,1.22,0,0,1,.33-1.61l1.94-1.39a8.89,8.89,0,0,1,0-2.38l-1.94-1.39a1.21,1.21,0,0,1-.33-1.6L28,23.25a1.23,1.23,0,0,1,1.53-.5l2.23,1a10.25,10.25,0,0,1,2.14-1.21l.26-2.33a1.23,1.23,0,0,1,1.21-1.08h5.28a1.21,1.21,0,0,1,1.21,1.08l.26,2.33a10.25,10.25,0,0,1,2.14,1.21l2.23-1a1.24,1.24,0,0,1,1.53.5l2.64,4.47a1.21,1.21,0,0,1-.34,1.6l-1.93,1.39a9.61,9.61,0,0,1,.07,1.19,9.39,9.39,0,0,1-.07,1.19l1.93,1.39a1.22,1.22,0,0,1,.34,1.61L48,40.55a1.22,1.22,0,0,1-1.53.5l-2.23-.95a10.72,10.72,0,0,1-2.14,1.21l-.26,2.33A1.22,1.22,0,0,1,40.67,44.72Zm-4.19-2.44h3.1l.23-2a1.2,1.2,0,0,1,.82-1,7.93,7.93,0,0,0,2.67-1.51,1.21,1.21,0,0,1,1.27-.19l1.92.81L48,35.81l-1.64-1.18a1.23,1.23,0,0,1-.49-1.23,7.11,7.11,0,0,0,0-3,1.22,1.22,0,0,1,.49-1.22L48,28l-1.53-2.59-1.92.82A1.23,1.23,0,0,1,43.3,26a7.93,7.93,0,0,0-2.67-1.51,1.21,1.21,0,0,1-.82-1l-.23-2h-3.1l-.23,2a1.21,1.21,0,0,1-.82,1A7.93,7.93,0,0,0,32.76,26a1.22,1.22,0,0,1-1.27.19l-1.92-.82L28.05,28l1.64,1.18a1.22,1.22,0,0,1,.48,1.22A7.86,7.86,0,0,0,30,31.9a8,8,0,0,0,.15,1.51,1.23,1.23,0,0,1-.48,1.22l-1.64,1.18,1.52,2.58,1.92-.81a1.2,1.2,0,0,1,1.27.19,7.93,7.93,0,0,0,2.67,1.51,1.2,1.2,0,0,1,.82,1Z"/><path class="cls-1" d="M38,37a5.09,5.09,0,1,1,5.08-5.09A5.1,5.1,0,0,1,38,37Zm0-7.74a2.65,2.65,0,1,0,2.65,2.65A2.65,2.65,0,0,0,38,29.25Z"/></svg>