<svg id="Layer_1" data-name="Layer 1" xmlns="http://www.w3.org/2000/svg" viewBox="0 0 96.68 84.42"><defs><style>.cls-1{fill:#ef5050;}</style></defs><path class="cls-1" d="M48.34,42.67a1.17,1.17,0,0,1-.8-.31c-4.65-4.1-7-8.61-6.95-13.42.07-8,6.68-13.74,7-14a1.23,1.23,0,0,1,1.6,0c4.64,4.1,7,8.62,6.94,13.42-.07,8-6.68,13.74-7,14A1.24,1.24,0,0,1,48.34,42.67Zm0-25.12C46.73,19.24,43.06,23.62,43,29c0,3.78,1.75,7.41,5.29,10.8,1.64-1.69,5.3-6.06,5.33-11.42C53.68,24.58,51.9,21,48.36,17.55Z"/><path class="cls-1" d="M51.5,69.74H45.19A1.21,1.21,0,0,1,44,68.58L43,45.75a5.25,5.25,0,0,1,1.48-3.88,5.41,5.41,0,0,1,7.64,0,5.29,5.29,0,0,1,1.48,3.89l-.93,22.83A1.21,1.21,0,0,1,51.5,69.74Zm-5.15-2.43h4l.88-21.66a2.87,2.87,0,0,0-.8-2.1,2.93,2.93,0,0,0-4.14,0,2.82,2.82,0,0,0-.79,2.1Z"/><path class="cls-1" d="M35,44.52l-.26,0c-10-2.21-10.4-7.61-10.8-12.37l-.12-1.38a41.7,41.7,0,0,0-2.33-9.37,1.24,1.24,0,0,1,.21-1.24,1.21,1.21,0,0,1,1.19-.39c6,1.34,10.27,4.16,12.56,8.38,3.82,7,.82,15.26.69,15.6A1.21,1.21,0,0,1,35,44.52ZM24.56,22.7a39.76,39.76,0,0,1,1.72,7.8c0,.48.08,1,.12,1.43.38,4.46.67,8,7.81,9.92.62-2.26,1.71-7.86-.86-12.57C31.68,26.22,28.73,24,24.56,22.7Z"/><path class="cls-1" d="M45.39,69.76a1.21,1.21,0,0,1-1-.57L44.21,69l-.09-.12L32.48,49.63a5.29,5.29,0,0,1-.58-4.11,5.18,5.18,0,0,1,2.43-3.2l.19-.12a5.33,5.33,0,0,1,7.22,2.31l3.88,7.74a1.21,1.21,0,1,1-2.17,1.09L39.57,45.6a2.85,2.85,0,0,0-3.86-1.27l-.09.05h0a2.82,2.82,0,0,0-1.37,1.76,2.79,2.79,0,0,0,.31,2.22L46.15,67.48l.07.09.2.32A1.22,1.22,0,0,1,46,69.57,1.2,1.2,0,0,1,45.39,69.76Z"/><path class="cls-1" d="M61.64,44.52a1.21,1.21,0,0,1-1.14-.79c-.13-.34-3.13-8.58.69-15.6,2.29-4.22,6.52-7,12.56-8.38a1.24,1.24,0,0,1,1.21.41,1.22,1.22,0,0,1,.17,1.26s-1.88,4.4-1.8,7.79l0,1c.18,5.47.38,11.66-11.45,14.29ZM72.07,22.71C67.93,24,65,26.23,63.33,29.28c-2.57,4.71-1.48,10.31-.86,12.58,8.76-2.27,8.62-6.59,8.46-11.57l0-1A21,21,0,0,1,72.07,22.71Z"/><path class="cls-1" d="M51.3,69.76a1.23,1.23,0,0,1-1.06-1.83l.2-.34.1-.15L62.12,48.36a2.81,2.81,0,0,0,.32-2.21,2.84,2.84,0,0,0-1.37-1.77h0L61,44.33a2.92,2.92,0,0,0-3.9,1.29l-3.87,7.74A1.21,1.21,0,1,1,51,52.28l3.88-7.77a5.41,5.41,0,0,1,7.25-2.31l.19.12a5.3,5.3,0,0,1,1.84,7.31L52.56,68.8l-.07.11-.14.24A1.23,1.23,0,0,1,51.3,69.76Z"/></svg>