<svg id="Layer_1" data-name="Layer 1" xmlns="http://www.w3.org/2000/svg" viewBox="0 0 96.68 84.42"><defs><style>.cls-1{fill:#ef5050;}</style></defs><path class="cls-1" d="M79.91,64.67H16.77a1.22,1.22,0,0,1-1.22-1.21V21a1.22,1.22,0,0,1,1.22-1.22H79.91A1.22,1.22,0,0,1,81.13,21V63.46A1.22,1.22,0,0,1,79.91,64.67ZM18,62.24h60.7V22.18H18Z"/><path class="cls-1" d="M68.65,35.34H28a2.44,2.44,0,0,1,0-4.87H68.65a2.44,2.44,0,0,1,0,4.87Z"/><path class="cls-1" d="M34.3,43.43H28A1.22,1.22,0,0,1,28,41H34.3a1.22,1.22,0,0,1,0,2.43Z"/><path class="cls-1" d="M68.65,43.43H42.08a1.22,1.22,0,1,1,0-2.43H68.65a1.22,1.22,0,0,1,0,2.43Z"/></svg>