<svg id="Layer_1" data-name="Layer 1" xmlns="http://www.w3.org/2000/svg" viewBox="0 0 96.68 84.42"><defs><style>.cls-1{fill:#ef5050;}</style></defs><path class="cls-1" d="M48.34,66.55a1.25,1.25,0,0,1-.5-.11L24.41,55.94a1.23,1.23,0,0,1-.72-1.11V29.57a1.21,1.21,0,0,1,.72-1.11L47.84,18a1.22,1.22,0,0,1,1.72,1.11V65.33a1.23,1.23,0,0,1-.56,1A1.21,1.21,0,0,1,48.34,66.55ZM26.12,54l21,9.42V21l-21,9.39Z"/><path class="cls-1" d="M48.34,66.55a1.21,1.21,0,0,1-.66-.19,1.23,1.23,0,0,1-.56-1V19.09A1.22,1.22,0,0,1,48.84,18L72.27,28.46A1.21,1.21,0,0,1,73,29.57V54.83a1.23,1.23,0,0,1-.72,1.11L48.84,66.44A1.25,1.25,0,0,1,48.34,66.55ZM49.56,21V63.46l21-9.42V30.36ZM71.78,54.83h0Z"/><path class="cls-1" d="M60.06,33.13a1.22,1.22,0,0,1-1.22-1.22V25.65a1.22,1.22,0,1,1,2.43,0v6.26A1.22,1.22,0,0,1,60.06,33.13Z"/><path class="cls-1" d="M36.62,60a1.21,1.21,0,0,1-1.21-1.21V52.51a1.22,1.22,0,0,1,2.43,0v6.27A1.22,1.22,0,0,1,36.62,60Z"/></svg>