<svg id="Layer_1" data-name="Layer 1" xmlns="http://www.w3.org/2000/svg" viewBox="0 0 96.68 84.42"><defs><style>.cls-1{fill:#ef5050;}</style></defs><path class="cls-1" d="M34.73,48.85a1.25,1.25,0,0,1-.5-.11L23.62,44a1.22,1.22,0,0,1-.72-1.11V31.43a1.21,1.21,0,0,1,.72-1.11l10.61-4.75A1.22,1.22,0,0,1,36,26.68v21a1.23,1.23,0,0,1-1.22,1.22Zm-9.4-6.77,8.18,3.67V28.56l-8.18,3.66Z"/><path class="cls-1" d="M34.73,48.85a1.23,1.23,0,0,1-1.22-1.22v-21a1.22,1.22,0,0,1,1.72-1.11l10.61,4.75a1.21,1.21,0,0,1,.72,1.11V42.87A1.22,1.22,0,0,1,45.84,44L35.23,48.74A1.25,1.25,0,0,1,34.73,48.85ZM36,28.56V45.75l8.18-3.67V32.22Zm9.4,14.31h0Z"/><path class="cls-1" d="M40,33.71a1.22,1.22,0,0,1-1.22-1.22V29.65a1.22,1.22,0,1,1,2.43,0v2.84A1.22,1.22,0,0,1,40,33.71Z"/><path class="cls-1" d="M29.42,45.88a1.22,1.22,0,0,1-1.21-1.22V41.82a1.22,1.22,0,0,1,2.43,0v2.84A1.22,1.22,0,0,1,29.42,45.88Z"/><path class="cls-1" d="M62.64,61H31.07a1.22,1.22,0,1,1,0-2.43H61.43V18.5H8V58.56h8.32a1.22,1.22,0,0,1,0,2.43H6.82A1.22,1.22,0,0,1,5.6,59.78V17.28a1.22,1.22,0,0,1,1.22-1.21H62.64a1.21,1.21,0,0,1,1.22,1.21v42.5A1.21,1.21,0,0,1,62.64,61Z"/><path class="cls-1" d="M84.69,47.09H66.5A5.07,5.07,0,0,1,61.43,42V32.78a1.22,1.22,0,0,1,1.22-1.22H81a5,5,0,0,1,5,4.95v9.36A1.22,1.22,0,0,1,84.69,47.09ZM63.87,34v8a2.63,2.63,0,0,0,2.63,2.63h17V36.51A2.51,2.51,0,0,0,81,34Z"/><path class="cls-1" d="M89.86,61H83.61a1.22,1.22,0,1,1,0-2.43h5V34.41a6.88,6.88,0,0,0-6.88-6.86H63.86v31h5a1.22,1.22,0,1,1,0,2.43H62.64a1.21,1.21,0,0,1-1.21-1.21V26.33a1.21,1.21,0,0,1,1.21-1.21H81.76a9.31,9.31,0,0,1,9.32,9.29V59.78A1.22,1.22,0,0,1,89.86,61Z"/><path class="cls-1" d="M76.25,68.36a8.58,8.58,0,1,1,8.58-8.58A8.58,8.58,0,0,1,76.25,68.36Zm0-14.72a6.14,6.14,0,1,0,6.14,6.14A6.15,6.15,0,0,0,76.25,53.64Z"/><path class="cls-1" d="M23.72,68.36a8.58,8.58,0,1,1,8.58-8.58A8.58,8.58,0,0,1,23.72,68.36Zm0-14.72a6.14,6.14,0,1,0,6.15,6.14A6.15,6.15,0,0,0,23.72,53.64Z"/></svg>