<svg id="Layer_1" data-name="Layer 1" xmlns="http://www.w3.org/2000/svg" viewBox="0 0 96.68 84.42"><defs><style>.cls-1{fill:#ef5050;}</style></defs><path class="cls-1" d="M48.35,44.74A13.43,13.43,0,1,1,61.78,31.31,13.44,13.44,0,0,1,48.35,44.74Zm0-24.43a11,11,0,1,0,11,11A11,11,0,0,0,48.35,20.31Z"/><path class="cls-1" d="M71.43,66.54H25.25A1.21,1.21,0,0,1,24,65.26a24.35,24.35,0,0,1,48.62,0,1.21,1.21,0,0,1-1.22,1.28ZM26.57,64.11H70.11a21.92,21.92,0,0,0-43.54,0Z"/><path class="cls-1" d="M48.35,51a1.22,1.22,0,0,1-1.22-1.21V43.53a1.22,1.22,0,0,1,2.44,0V49.8A1.22,1.22,0,0,1,48.35,51Z"/></svg>