<svg id="Layer_1" data-name="Layer 1" xmlns="http://www.w3.org/2000/svg" viewBox="0 0 96.68 84.42"><defs><style>.cls-1{fill:#ef5050;}</style></defs><path class="cls-1" d="M48.34,64.43A22.22,22.22,0,1,1,70.56,42.21,22.24,22.24,0,0,1,48.34,64.43Zm0-42A19.78,19.78,0,1,0,68.12,42.21,19.8,19.8,0,0,0,48.34,22.43Z"/><path class="cls-1" d="M48.34,64.43c-5.45,0-9.56-9.55-9.56-22.22S42.89,20,48.34,20s9.56,9.55,9.56,22.21S53.79,64.43,48.34,64.43Zm0-42c-3.37,0-7.13,8.12-7.13,19.78S45,62,48.34,62s7.13-8.12,7.13-19.78S51.71,22.43,48.34,22.43Z"/><path class="cls-1" d="M48.34,46.22c-8.3,0-22.21-.52-22.21-4a1.22,1.22,0,0,1,2.36-.41c1.31.86,8.68,2,19.85,2s18.54-1.13,19.85-2a1.22,1.22,0,0,1,2.37.41C70.56,45.7,56.64,46.22,48.34,46.22Z"/></svg>