<svg id="Layer_1" data-name="Layer 1" xmlns="http://www.w3.org/2000/svg" viewBox="0 0 96.68 84.42"><defs><style>.cls-1{fill:#ef5050;}</style></defs><path class="cls-1" d="M76.93,68.36H42.63a1.22,1.22,0,0,1-1.22-1.22V24.7a1.22,1.22,0,0,1,1.22-1.21h34.3a1.21,1.21,0,0,1,1.21,1.21V67.14A1.21,1.21,0,0,1,76.93,68.36ZM43.84,65.93H75.71v-40H43.84Z"/><path class="cls-1" d="M68.73,35H50.83a1.22,1.22,0,0,1,0-2.44h17.9a1.22,1.22,0,0,1,0,2.44Z"/><path class="cls-1" d="M68.73,40.36H50.83a1.22,1.22,0,1,1,0-2.43h17.9a1.22,1.22,0,0,1,0,2.43Z"/><path class="cls-1" d="M68.73,45.74H50.83a1.22,1.22,0,1,1,0-2.43h17.9a1.22,1.22,0,0,1,0,2.43Z"/><path class="cls-1" d="M68.73,51.12H50.83a1.22,1.22,0,1,1,0-2.43h17.9a1.22,1.22,0,0,1,0,2.43Z"/><path class="cls-1" d="M28.78,67.26a1.18,1.18,0,0,1-.66-.19,1.22,1.22,0,0,1-.53-.76l-9-41.48a1.22,1.22,0,0,1,.93-1.44L53,16.09a1.21,1.21,0,0,1,1.44.93l1.63,7.42a1.21,1.21,0,0,1-2.37.52l-1.37-6.23L21.2,25.51,29.7,64.6l12.66-2.76a1.22,1.22,0,0,1,.52,2.38L29,67.24Z"/><path class="cls-1" d="M29.68,32.89a1.21,1.21,0,0,1-.26-2.4l12.94-2.82A1.21,1.21,0,0,1,42.88,30l-13,2.83A1.06,1.06,0,0,1,29.68,32.89Z"/><path class="cls-1" d="M30.82,38.15a1.22,1.22,0,0,1-.26-2.41l11.8-2.55a1.22,1.22,0,0,1,.51,2.38l-11.8,2.55A1.07,1.07,0,0,1,30.82,38.15Z"/><path class="cls-1" d="M32,43.4a1.21,1.21,0,0,1-.25-2.4l10.65-2.31a1.21,1.21,0,1,1,.51,2.37L32.22,43.37A1.15,1.15,0,0,1,32,43.4Z"/><path class="cls-1" d="M33.13,48.66a1.22,1.22,0,0,1-.26-2.41l9.49-2.07a1.22,1.22,0,0,1,.52,2.38l-9.49,2.07A1.15,1.15,0,0,1,33.13,48.66Z"/></svg>